<svg width="48" height="48" viewBox="0 0 48 48" fill="none" xmlns="http://www.w3.org/2000/svg">
<path d="M30.0184 22.6969L25.3593 33.3464C24.7968 34.6427 23.1657 34.5999 22.6501 33.2821L17.316 19.7507L14.5037 27.4324H5.68231L22.7907 47.4134C23.4563 48.1955 24.5343 48.1955 25.1999 47.4134L42.3177 27.4324H32.0902L30.0184 22.6969ZM44.4082 4.49439L44.1832 4.22655C39.3554 -1.40885 31.4527 -1.40885 26.6155 4.22655L24 7.29066L21.3845 4.23726C16.5567 -1.40885 8.64464 -1.40885 3.8168 4.23726L3.59181 4.49439C-0.97355 9.82981 -1.17041 18.3258 2.90747 24.004H12.5069L15.8723 14.7688C16.3786 13.3868 18.0847 13.3546 18.6284 14.726L24.0844 28.5788L28.6779 18.0901C29.2309 16.8258 30.8059 16.8258 31.3589 18.0901L33.9463 24.004H45.0925C49.1704 18.3258 48.9736 9.82981 44.4082 4.49439V4.49439Z" fill="#FF0000"/>
</svg>
